<mxfile host="Electron" modified="2024-03-30T04:46:21.765Z" agent="Mozilla/5.0 (X11; Linux x86_64) AppleWebKit/537.36 (KHTML, like Gecko) draw.io/24.1.0 Chrome/120.0.6099.109 Electron/28.1.0 Safari/537.36" etag="7QkQDtMtPG_iUvTTMBH8" version="24.1.0" type="device">
  <diagram name="Page-1" id="6x3bWmg-yjZQ7gcDFQyZ">
    <mxGraphModel dx="1903" dy="703" grid="1" gridSize="10" guides="1" tooltips="1" connect="1" arrows="1" fold="1" page="1" pageScale="1" pageWidth="850" pageHeight="1100" math="0" shadow="0">
      <root>
        <mxCell id="0" />
        <mxCell id="1" parent="0" />
        <mxCell id="zuKFLGrr_m4QL3YyUUtK-65" value="&lt;span style=&quot;font-size: 36px;&quot;&gt;std::weak_ptr解决循环引用问题&lt;/span&gt;" style="text;html=1;align=center;verticalAlign=middle;resizable=0;points=[];autosize=1;strokeColor=none;fillColor=none;" parent="1" vertex="1">
          <mxGeometry x="-570" y="430" width="530" height="60" as="geometry" />
        </mxCell>
        <mxCell id="zuKFLGrr_m4QL3YyUUtK-67" value="" style="rounded=0;whiteSpace=wrap;html=1;" parent="1" vertex="1">
          <mxGeometry x="180" y="610" width="190" height="250" as="geometry" />
        </mxCell>
        <mxCell id="zuKFLGrr_m4QL3YyUUtK-68" value="" style="rounded=0;whiteSpace=wrap;html=1;" parent="1" vertex="1">
          <mxGeometry x="460" y="610" width="190" height="250" as="geometry" />
        </mxCell>
        <mxCell id="zuKFLGrr_m4QL3YyUUtK-69" value="&lt;font style=&quot;font-size: 24px;&quot;&gt;栈&lt;/font&gt;" style="text;html=1;align=center;verticalAlign=middle;resizable=0;points=[];autosize=1;strokeColor=none;fillColor=none;" parent="1" vertex="1">
          <mxGeometry x="370" y="820" width="50" height="40" as="geometry" />
        </mxCell>
        <mxCell id="zuKFLGrr_m4QL3YyUUtK-70" value="&lt;span style=&quot;font-size: 24px;&quot;&gt;堆&lt;/span&gt;" style="text;html=1;align=center;verticalAlign=middle;resizable=0;points=[];autosize=1;strokeColor=none;fillColor=none;" parent="1" vertex="1">
          <mxGeometry x="670" y="820" width="50" height="40" as="geometry" />
        </mxCell>
        <mxCell id="zuKFLGrr_m4QL3YyUUtK-79" value="0x1236" style="rounded=0;whiteSpace=wrap;html=1;" parent="1" vertex="1">
          <mxGeometry x="215" y="680" width="120" height="30" as="geometry" />
        </mxCell>
        <mxCell id="zuKFLGrr_m4QL3YyUUtK-80" value="c" style="text;html=1;align=center;verticalAlign=middle;resizable=0;points=[];autosize=1;strokeColor=none;fillColor=none;" parent="1" vertex="1">
          <mxGeometry x="210" y="680" width="30" height="30" as="geometry" />
        </mxCell>
        <mxCell id="zuKFLGrr_m4QL3YyUUtK-81" value="b_ptr" style="rounded=0;whiteSpace=wrap;html=1;" parent="1" vertex="1">
          <mxGeometry x="495" y="780" width="120" height="30" as="geometry" />
        </mxCell>
        <mxCell id="zuKFLGrr_m4QL3YyUUtK-82" value="" style="endArrow=classic;html=1;rounded=0;exitX=1;exitY=0.5;exitDx=0;exitDy=0;fillColor=#d5e8d4;strokeColor=#82b366;" parent="1" edge="1" source="R9fJRdY31qIk23kEyGto-3">
          <mxGeometry width="50" height="50" relative="1" as="geometry">
            <mxPoint x="400" y="795" as="sourcePoint" />
            <mxPoint x="495" y="794.5" as="targetPoint" />
          </mxGeometry>
        </mxCell>
        <mxCell id="R9fJRdY31qIk23kEyGto-1" value="&lt;div style=&quot;color: #3b3b3b;background-color: #ffffff;font-family: &#39;Droid Sans Mono&#39;, &#39;monospace&#39;, monospace;font-weight: normal;font-size: 20px;line-height: 27px;white-space: pre;&quot;&gt;&lt;div&gt;&lt;span style=&quot;color: #0000ff;&quot;&gt;class&lt;/span&gt;&lt;span style=&quot;color: #3b3b3b;&quot;&gt; &lt;/span&gt;&lt;span style=&quot;color: #267f99;&quot;&gt;A&lt;/span&gt;&lt;span style=&quot;color: #3b3b3b;&quot;&gt; {&lt;/span&gt;&lt;span style=&quot;color: #0000ff;&quot;&gt;public:&lt;/span&gt;&lt;span style=&quot;color: #3b3b3b;&quot;&gt; &lt;/span&gt;&lt;span style=&quot;color: #267f99;&quot;&gt;std&lt;/span&gt;&lt;span style=&quot;color: #3b3b3b;&quot;&gt;::&lt;/span&gt;&lt;span style=&quot;color: #267f99;&quot;&gt;shared_ptr&lt;/span&gt;&lt;span style=&quot;color: #000000;&quot;&gt;&amp;lt;&lt;/span&gt;&lt;span style=&quot;color: #267f99;&quot;&gt;B&lt;/span&gt;&lt;span style=&quot;color: #000000;&quot;&gt;&amp;gt;&lt;/span&gt;&lt;span style=&quot;color: #3b3b3b;&quot;&gt; &lt;/span&gt;&lt;span style=&quot;color: #001080;&quot;&gt;b_ptr&lt;/span&gt;&lt;span style=&quot;color: #3b3b3b;&quot;&gt;;}&lt;/span&gt;&lt;/div&gt;&lt;div&gt;&lt;span style=&quot;color: #0000ff;&quot;&gt;class&lt;/span&gt;&lt;span style=&quot;color: #3b3b3b;&quot;&gt; &lt;/span&gt;&lt;span style=&quot;color: #267f99;&quot;&gt;B&lt;/span&gt;&lt;span style=&quot;color: #3b3b3b;&quot;&gt; {&lt;/span&gt;&lt;span style=&quot;color: #0000ff;&quot;&gt;public:&lt;/span&gt;&lt;span style=&quot;color: #3b3b3b;&quot;&gt; &lt;/span&gt;&lt;span style=&quot;color: #267f99;&quot;&gt;std&lt;/span&gt;&lt;span style=&quot;color: #3b3b3b;&quot;&gt;::&lt;/span&gt;&lt;span style=&quot;color: #267f99;&quot;&gt;shared_ptr&lt;/span&gt;&lt;span style=&quot;color: #000000;&quot;&gt;&amp;lt;&lt;/span&gt;&lt;span style=&quot;color: #267f99;&quot;&gt;A&lt;/span&gt;&lt;span style=&quot;color: #000000;&quot;&gt;&amp;gt;&lt;/span&gt;&lt;span style=&quot;color: #3b3b3b;&quot;&gt; &lt;/span&gt;&lt;span style=&quot;color: #001080;&quot;&gt;a_ptr&lt;/span&gt;&lt;span style=&quot;color: #3b3b3b;&quot;&gt;;}&lt;/span&gt;&lt;/div&gt;&lt;div&gt;&lt;span style=&quot;color: #0000ff;&quot;&gt;class&lt;/span&gt;&lt;span style=&quot;color: #3b3b3b;&quot;&gt; &lt;/span&gt;&lt;span style=&quot;color: #267f99;&quot;&gt;C&lt;/span&gt;&lt;span style=&quot;color: #3b3b3b;&quot;&gt; {&lt;/span&gt;&lt;span style=&quot;color: #0000ff;&quot;&gt;public:&lt;/span&gt;&lt;span style=&quot;color: #3b3b3b;&quot;&gt; &lt;/span&gt;&lt;span style=&quot;color: #267f99;&quot;&gt;std&lt;/span&gt;&lt;span style=&quot;color: #3b3b3b;&quot;&gt;::&lt;/span&gt;&lt;span style=&quot;color: #267f99;&quot;&gt;shared_ptr&lt;/span&gt;&lt;span style=&quot;color: #000000;&quot;&gt;&amp;lt;&lt;/span&gt;&lt;span style=&quot;color: #267f99;&quot;&gt;B&lt;/span&gt;&lt;span style=&quot;color: #000000;&quot;&gt;&amp;gt;&lt;/span&gt;&lt;span style=&quot;color: #3b3b3b;&quot;&gt; &lt;/span&gt;&lt;span style=&quot;color: #001080;&quot;&gt;b_ptr&lt;/span&gt;&lt;span style=&quot;color: #3b3b3b;&quot;&gt;;}&lt;/span&gt;&lt;/div&gt;&lt;br&gt;&lt;div&gt;&lt;span style=&quot;color: #0000ff;&quot;&gt;auto&lt;/span&gt;&lt;span style=&quot;color: #3b3b3b;&quot;&gt; &lt;/span&gt;&lt;span style=&quot;color: #001080;&quot;&gt;b&lt;/span&gt;&lt;span style=&quot;color: #3b3b3b;&quot;&gt; &lt;/span&gt;&lt;span style=&quot;color: #000000;&quot;&gt;=&lt;/span&gt;&lt;span style=&quot;color: #3b3b3b;&quot;&gt; &lt;/span&gt;&lt;span style=&quot;color: #267f99;&quot;&gt;std&lt;/span&gt;&lt;span style=&quot;color: #3b3b3b;&quot;&gt;::&lt;/span&gt;&lt;span style=&quot;color: #795e26;&quot;&gt;make_shared&lt;/span&gt;&lt;span style=&quot;color: #3b3b3b;&quot;&gt;&amp;lt;&lt;/span&gt;&lt;span style=&quot;color: #267f99;&quot;&gt;B&lt;/span&gt;&lt;span style=&quot;color: #3b3b3b;&quot;&gt;&amp;gt;();&lt;/span&gt;&lt;/div&gt;&lt;div&gt;&lt;span style=&quot;color: #0000ff;&quot;&gt;auto&lt;/span&gt;&lt;span style=&quot;color: #3b3b3b;&quot;&gt; &lt;/span&gt;&lt;span style=&quot;color: #001080;&quot;&gt;a&lt;/span&gt;&lt;span style=&quot;color: #3b3b3b;&quot;&gt; &lt;/span&gt;&lt;span style=&quot;color: #000000;&quot;&gt;=&lt;/span&gt;&lt;span style=&quot;color: #3b3b3b;&quot;&gt; &lt;/span&gt;&lt;span style=&quot;color: #267f99;&quot;&gt;std&lt;/span&gt;&lt;span style=&quot;color: #3b3b3b;&quot;&gt;::&lt;/span&gt;&lt;span style=&quot;color: #795e26;&quot;&gt;make_shared&lt;/span&gt;&lt;span style=&quot;color: #3b3b3b;&quot;&gt;&amp;lt;&lt;/span&gt;&lt;span style=&quot;color: #267f99;&quot;&gt;A&lt;/span&gt;&lt;span style=&quot;color: #3b3b3b;&quot;&gt;&amp;gt;();&lt;/span&gt;&lt;/div&gt;&lt;div&gt;&lt;span style=&quot;color: #0000ff;&quot;&gt;auto&lt;/span&gt;&lt;span style=&quot;color: #3b3b3b;&quot;&gt; &lt;/span&gt;&lt;span style=&quot;color: #001080;&quot;&gt;c&lt;/span&gt;&lt;span style=&quot;color: #3b3b3b;&quot;&gt; &lt;/span&gt;&lt;span style=&quot;color: #000000;&quot;&gt;=&lt;/span&gt;&lt;span style=&quot;color: #3b3b3b;&quot;&gt; &lt;/span&gt;&lt;span style=&quot;color: #267f99;&quot;&gt;std&lt;/span&gt;&lt;span style=&quot;color: #3b3b3b;&quot;&gt;::&lt;/span&gt;&lt;span style=&quot;color: #795e26;&quot;&gt;make_shared&lt;/span&gt;&lt;span style=&quot;color: #3b3b3b;&quot;&gt;&amp;lt;&lt;/span&gt;&lt;span style=&quot;color: #267f99;&quot;&gt;C&lt;/span&gt;&lt;span style=&quot;color: #3b3b3b;&quot;&gt;&amp;gt;();&lt;/span&gt;&lt;/div&gt;&lt;div&gt;&lt;span style=&quot;color: #001080;&quot;&gt;a&lt;/span&gt;&lt;span style=&quot;color: #3b3b3b;&quot;&gt;-&amp;gt;&lt;/span&gt;&lt;span style=&quot;color: #001080;&quot;&gt;b_ptr&lt;/span&gt;&lt;span style=&quot;color: #3b3b3b;&quot;&gt; &lt;/span&gt;&lt;span style=&quot;color: #000000;&quot;&gt;=&lt;/span&gt;&lt;span style=&quot;color: #3b3b3b;&quot;&gt; b;&lt;/span&gt;&lt;/div&gt;&lt;div&gt;&lt;span style=&quot;color: #001080;&quot;&gt;c&lt;/span&gt;&lt;span style=&quot;color: #3b3b3b;&quot;&gt;-&amp;gt;&lt;/span&gt;&lt;span style=&quot;color: #001080;&quot;&gt;b_ptr&lt;/span&gt;&lt;span style=&quot;color: #3b3b3b;&quot;&gt; &lt;/span&gt;&lt;span style=&quot;color: #000000;&quot;&gt;=&lt;/span&gt;&lt;span style=&quot;color: #3b3b3b;&quot;&gt; b;&lt;/span&gt;&lt;/div&gt;&lt;div&gt;&lt;span style=&quot;color: #001080;&quot;&gt;b&lt;/span&gt;&lt;span style=&quot;color: #3b3b3b;&quot;&gt;-&amp;gt;&lt;/span&gt;&lt;span style=&quot;color: #001080;&quot;&gt;a_ptr&lt;/span&gt;&lt;span style=&quot;color: #3b3b3b;&quot;&gt; &lt;/span&gt;&lt;span style=&quot;color: #000000;&quot;&gt;=&lt;/span&gt;&lt;span style=&quot;color: #3b3b3b;&quot;&gt; a;&lt;/span&gt;&lt;/div&gt;&lt;/div&gt;" style="text;whiteSpace=wrap;html=1;" vertex="1" parent="1">
          <mxGeometry x="-550" y="590" width="560" height="290" as="geometry" />
        </mxCell>
        <mxCell id="R9fJRdY31qIk23kEyGto-2" value="0x1235" style="rounded=0;whiteSpace=wrap;html=1;" vertex="1" parent="1">
          <mxGeometry x="215" y="730" width="120" height="30" as="geometry" />
        </mxCell>
        <mxCell id="R9fJRdY31qIk23kEyGto-3" value="0x1234" style="rounded=0;whiteSpace=wrap;html=1;" vertex="1" parent="1">
          <mxGeometry x="215" y="780" width="120" height="30" as="geometry" />
        </mxCell>
        <mxCell id="R9fJRdY31qIk23kEyGto-4" value="b" style="text;html=1;align=center;verticalAlign=middle;resizable=0;points=[];autosize=1;strokeColor=none;fillColor=none;" vertex="1" parent="1">
          <mxGeometry x="210" y="730" width="30" height="30" as="geometry" />
        </mxCell>
        <mxCell id="R9fJRdY31qIk23kEyGto-5" value="a" style="text;html=1;align=center;verticalAlign=middle;resizable=0;points=[];autosize=1;strokeColor=none;fillColor=none;" vertex="1" parent="1">
          <mxGeometry x="210" y="780" width="30" height="30" as="geometry" />
        </mxCell>
        <mxCell id="R9fJRdY31qIk23kEyGto-6" value="a_ptr" style="rounded=0;whiteSpace=wrap;html=1;" vertex="1" parent="1">
          <mxGeometry x="495" y="730" width="120" height="30" as="geometry" />
        </mxCell>
        <mxCell id="R9fJRdY31qIk23kEyGto-7" value="c_ptr" style="rounded=0;whiteSpace=wrap;html=1;" vertex="1" parent="1">
          <mxGeometry x="495" y="680" width="120" height="30" as="geometry" />
        </mxCell>
        <mxCell id="R9fJRdY31qIk23kEyGto-8" value="A" style="text;html=1;align=center;verticalAlign=middle;resizable=0;points=[];autosize=1;strokeColor=none;fillColor=none;" vertex="1" parent="1">
          <mxGeometry x="610" y="790" width="30" height="30" as="geometry" />
        </mxCell>
        <mxCell id="R9fJRdY31qIk23kEyGto-9" value="B" style="text;html=1;align=center;verticalAlign=middle;resizable=0;points=[];autosize=1;strokeColor=none;fillColor=none;" vertex="1" parent="1">
          <mxGeometry x="610" y="740" width="30" height="30" as="geometry" />
        </mxCell>
        <mxCell id="R9fJRdY31qIk23kEyGto-10" value="C" style="text;html=1;align=center;verticalAlign=middle;resizable=0;points=[];autosize=1;strokeColor=none;fillColor=none;" vertex="1" parent="1">
          <mxGeometry x="610" y="690" width="30" height="30" as="geometry" />
        </mxCell>
        <mxCell id="R9fJRdY31qIk23kEyGto-11" value="0x1234" style="text;html=1;align=center;verticalAlign=middle;resizable=0;points=[];autosize=1;strokeColor=none;fillColor=none;" vertex="1" parent="1">
          <mxGeometry x="615" y="780" width="60" height="30" as="geometry" />
        </mxCell>
        <mxCell id="R9fJRdY31qIk23kEyGto-12" value="0x1235" style="text;html=1;align=center;verticalAlign=middle;resizable=0;points=[];autosize=1;strokeColor=none;fillColor=none;" vertex="1" parent="1">
          <mxGeometry x="615" y="730" width="60" height="30" as="geometry" />
        </mxCell>
        <mxCell id="R9fJRdY31qIk23kEyGto-13" value="0x1236" style="text;html=1;align=center;verticalAlign=middle;resizable=0;points=[];autosize=1;strokeColor=none;fillColor=none;" vertex="1" parent="1">
          <mxGeometry x="615" y="680" width="60" height="30" as="geometry" />
        </mxCell>
        <mxCell id="R9fJRdY31qIk23kEyGto-15" value="" style="endArrow=classic;html=1;rounded=0;exitX=1;exitY=0.5;exitDx=0;exitDy=0;fillColor=#d5e8d4;strokeColor=#82b366;" edge="1" parent="1">
          <mxGeometry width="50" height="50" relative="1" as="geometry">
            <mxPoint x="335" y="695" as="sourcePoint" />
            <mxPoint x="495" y="694.5" as="targetPoint" />
          </mxGeometry>
        </mxCell>
        <mxCell id="R9fJRdY31qIk23kEyGto-16" value="" style="endArrow=classic;html=1;rounded=0;exitX=1;exitY=0.5;exitDx=0;exitDy=0;fillColor=#d5e8d4;strokeColor=#82b366;" edge="1" parent="1">
          <mxGeometry width="50" height="50" relative="1" as="geometry">
            <mxPoint x="335" y="745" as="sourcePoint" />
            <mxPoint x="495" y="744.5" as="targetPoint" />
          </mxGeometry>
        </mxCell>
        <mxCell id="R9fJRdY31qIk23kEyGto-17" value="" style="curved=1;endArrow=classic;html=1;rounded=0;exitX=0.108;exitY=0.067;exitDx=0;exitDy=0;exitPerimeter=0;" edge="1" parent="1" source="zuKFLGrr_m4QL3YyUUtK-81">
          <mxGeometry width="50" height="50" relative="1" as="geometry">
            <mxPoint x="445" y="810" as="sourcePoint" />
            <mxPoint x="495" y="760" as="targetPoint" />
            <Array as="points">
              <mxPoint x="495" y="810" />
              <mxPoint x="470" y="770" />
            </Array>
          </mxGeometry>
        </mxCell>
        <mxCell id="R9fJRdY31qIk23kEyGto-18" value="" style="curved=1;endArrow=classic;html=1;rounded=0;exitX=0.108;exitY=0.067;exitDx=0;exitDy=0;exitPerimeter=0;entryX=0;entryY=0.25;entryDx=0;entryDy=0;" edge="1" parent="1" target="R9fJRdY31qIk23kEyGto-6">
          <mxGeometry width="50" height="50" relative="1" as="geometry">
            <mxPoint x="495" y="700" as="sourcePoint" />
            <mxPoint x="483" y="750" as="targetPoint" />
            <Array as="points">
              <mxPoint x="470" y="710" />
              <mxPoint x="463" y="730" />
            </Array>
          </mxGeometry>
        </mxCell>
        <mxCell id="R9fJRdY31qIk23kEyGto-19" value="" style="curved=1;endArrow=classic;html=1;rounded=0;exitX=0.108;exitY=0.067;exitDx=0;exitDy=0;exitPerimeter=0;entryX=0;entryY=0.25;entryDx=0;entryDy=0;" edge="1" parent="1">
          <mxGeometry width="50" height="50" relative="1" as="geometry">
            <mxPoint x="582" y="752" as="sourcePoint" />
            <mxPoint x="582" y="790" as="targetPoint" />
            <Array as="points">
              <mxPoint x="590" y="752" />
              <mxPoint x="600" y="762" />
              <mxPoint x="600" y="772" />
              <mxPoint x="610" y="772" />
            </Array>
          </mxGeometry>
        </mxCell>
      </root>
    </mxGraphModel>
  </diagram>
</mxfile>
